Coordinates
version=1
nRows=6
nColumns=46
inDegrees=yes

Units are S.I. units (second, meters, Newtons, ...)
Angles are in degrees.

endheader
time	pelvis_tilt	pelvis_list	pelvis_rotation	pelvis_tx	pelvis_ty	pelvis_tz	bb_angle	bb_tx	bb_ty	bb_tz	hip_flexion_r	hip_adduction_r	hip_rotation_r	knee_angle_r	knee_angle_r_beta	ankle_angle_r	subtalar_angle_r	mtp_angle_r	crank_angle_r	hip_flexion_l	hip_adduction_l	hip_rotation_l	knee_angle_l	knee_angle_l_beta	ankle_angle_l	subtalar_angle_l	mtp_angle_l	crank_angle_l	lumbar_extension	lumbar_bending	lumbar_rotation	arm_flex_r	arm_add_r	arm_rot_r	elbow_flex_r	pro_sup_r	wrist_flex_r	wrist_dev_r	arm_flex_l	arm_add_l	arm_rot_l	elbow_flex_l	pro_sup_l	wrist_flex_l	wrist_dev_l
      0.00000000	    -27.75142209	     -1.80537763	     -4.83640296	      0.12970022	      1.02868451	     -0.21691171	      0.00000000	      0.50000000	      0.00000000	      0.25000000	     92.59548385	      0.71707642	      1.07032660	     80.49670022	      1.40493246	      0.87963641	     -7.25853375	      0.00000000	      0.00000000	     57.49988979	     -6.31027427	      4.04844403	     72.89125962	      1.27219248	     16.03292101	    -12.54188572	      0.00000000	      0.00000000	    -33.13905567	      0.79248299	      4.21523157	     83.57722806	     -4.32429955	     36.64530790	     27.34192740	     42.05623053	      0.00000000	      0.00000000	     78.47484875	     -8.13957015	     25.86504332	     29.61289778	     41.89180999	      0.00000000	      0.00000000
      0.00500000	    -27.72473424	     -1.81300811	     -4.81587461	      0.12967901	      1.02874527	     -0.21700266	      0.00000000	      0.50000000	      0.00000000	      0.25000000	     92.55085538	      0.69115166	      1.08399374	     80.47300853	      1.40451896	      0.90847158	     -7.21494834	      0.00000000	      0.00000000	     57.47933730	     -6.28212127	      4.08080186	     72.89401535	      1.27224057	     16.03077465	    -12.54215204	      0.00000000	      0.00000000	    -33.16493842	      0.82340660	      4.19358816	     83.56604143	     -3.95845783	     35.48601915	     27.14065716	     42.04717220	      0.00000000	      0.00000000	     78.45887386	     -7.90806486	     24.97709726	     29.55875699	     41.78576048	      0.00000000	      0.00000000
      0.01000000	    -27.70632678	     -1.79869031	     -4.82873866	      0.12968988	      1.02876412	     -0.21694350	      0.00000000	      0.50000000	      0.00000000	      0.25000000	     92.55983440	      0.70334793	      1.07995603	     80.52177803	      1.40537015	      0.91953054	     -7.24498350	      0.00000000	      0.00000000	     57.43803614	     -6.29462331	      4.04200538	     72.85438928	      1.27154897	     16.02250484	    -12.56102044	      0.00000000	      0.00000000	    -33.20473889	      0.77166814	      4.24101672	     83.71799008	     -4.72096804	     38.01594303	     27.32545986	     42.58750541	      0.00000000	      0.00000000	     78.67337344	     -8.35810374	     27.13575653	     29.36561305	     42.19099384	      0.00000000	      0.00000000
      0.01500000	    -27.77572519	     -1.81417673	     -4.82991806	      0.12974127	      1.02872059	     -0.21705429	      0.00000000	      0.50000000	      0.00000000	      0.25000000	     92.62013289	      0.69216071	      1.07020267	     80.52184397	      1.40537130	      0.90516004	     -7.23264333	      0.00000000	      0.00000000	     57.47989023	     -6.27618290	      4.07476801	     72.81328668	      1.27083159	     15.99784686	    -12.64366516	      0.00000000	      0.00000000	    -33.13609464	      0.78843039	      4.23900998	     83.63268233	     -4.72963121	     37.73195577	     27.48160381	     42.67608544	      0.00000000	      0.00000000	     78.55450001	     -8.31997166	     26.77859228	     29.56360710	     42.26052450	      0.00000000	      0.00000000
      0.02000000	    -27.72176285	     -1.81592467	     -4.82575238	      0.12976657	      1.02892667	     -0.21709916	      0.00000000	      0.50000000	      0.00000000	      0.25000000	     92.59113144	      0.62224381	      0.98240189	     80.57844889	      1.40635924	      1.00275043	     -7.22557403	      0.00000000	      0.00000000	     57.41403473	     -6.29770110	      4.02255096	     72.79985709	      1.27059720	     16.01268903	    -12.47789226	      0.00000000	      0.00000000	    -33.26024749	      0.75529440	      4.19851473	     83.33907893	     -4.89328169	     36.75835385	     28.50786960	     42.77201535	      0.00000000	      0.00000000	     78.31785648	     -8.45264361	     26.03253083	     30.57366284	     42.37417513	      0.00000000	      0.00000000
      0.02500000	    -27.76715297	     -1.83342798	     -4.82902217	      0.12966535	      1.02894082	     -0.21704769	      0.00000000	      0.50000000	      0.00000000	      0.25000000	     92.61424199	      0.67621688	      1.04384328	     80.53416471	      1.40558633	      0.95546099	     -7.24441995	      0.00000000	      0.00000000	     57.45464871	     -6.29713635	      4.08083463	     72.75566625	      1.26982593	     15.92675373	    -12.68403059	      0.00000000	      0.00000000	    -33.14421490	      0.79265220	      4.22906649	     83.67144852	     -4.69974925	     37.61445690	     27.37578675	     42.72313296	      0.00000000	      0.00000000	     78.57699446	     -8.25633494	     26.57990927	     29.46130962	     42.28686023	      0.00000000	      0.00000000
